{"title":"I Am Ali (2014) 1080p Blu-ray x264 DTS-HDMA MSubs -DDR","uid":14872919,"size":11434559589,"categoryP":"video","categoryS":"hd___movies","magnet":"?xt=urn:btih:34db130857f0e46db9d475caa83f549e02938ab8&amp;dn=I+Am+Ali+%282014%29+1080p+Blu-ray+x264+DTS-HDMA+MSubs+-DDR&amp;tr=udp%3A%2F%2Ftracker.leechers-paradise.org%3A6969&amp;tr=udp%3A%2F%2Fzer0day.ch%3A1337&amp;tr=udp%3A%2F%2Fopen.demonii.com%3A1337&amp;tr=udp%3A%2F%2Ftracker.coppersurfer.tk%3A6969&amp;tr=udp%3A%2F%2Fexodus.desync.com%3A6969","seeders":7,"leechers":6,"uploader":"SaM","files":4,"time":1465584340,"description":"- HollywooD MoviE -\r\n**- I Am Ali -**\r\n**- -**\r\n- (2014) -\r\n** HQ 1080p Blu-Ray / x264 / DTS 5.1 **\r\nMulti subtitle(s)\r\n \nhttp://extraimago.com/image/aBXM \nhttp://extraimago.com/image/aBX9 \nhttp://extraimago.com/image/aBX3 \nhttp://extraimago.com/image/aBXb \nhttp://extraimago.com/image/aBXh \nhttp://extraimago.com/image/aBXd \nhttp://extraimago.com/image/aBXI \nhttp://extraimago.com/image/aBXl \nhttp://extraimago.com/image/aBXi \nhttp://extraimago.com/image/aBXm \nhttp://extraimago.com/image/aBXR \nhttp://extraimago.com/image/aBXQ\r\n\r\n[ Specs ]\r\nGeneral\r\nSource = BD50 @ IPT\r\n\r\nFormat : Matroska\r\nFile size : 10.5 GiB\r\nDuration : 1h 51mn\r\nOverall bit rate : 13.5 Mbps\r\nEncoded date : UTC 2016-06-09 22:48:19\r\n\r\nVideo\r\nID : 1\r\nFormat : AVC\r\nFormat/Info : Advanced Video Codec\r\nFormat profile :   \r\nFormat settings, CABAC : Yes\r\nFormat settings, ReFrames : 4 frames\r\nDuration : 1h 59mn\r\nBit rate : 10 000 Kbps\r\nWidth : 1 920 pixels\r\nHeight : 1 080 pixels\r\nDisplay aspect ratio : 16:9\r\nFrame rate mode : Constant\r\nFrame rate : 23.976 (24000/1001) fps\r\ncolor space : YUV\r\nChroma subsampling : 4:2:0\r\nBit depth : 8 bits\r\nScan type : Progressive\r\nBits/(Pixel*Frame) : 0.201\r\nStream size : 7.79 GiB (74%)\r\nForced : No\r\nMatrix coefficients : BT.709\r\n\r\nAudio\r\nID : 2\r\nFormat : DTS\r\nFormat/Info : Digital Theater Systems\r\nFormat profile : MA / Core\r\nBit rate mode : Variable / Constant\r\nBit rate : 3 072 Kbps / 1 509 Kbps\r\nChannel(s) : 6 channels\r\nChannel positions : Front: L C R, Side: L R, LFE\r\nSampling rate : 48.0 KHz\r\nFrame rate : 93.750 fps (512 spf)\r\nBit depth : 24 bits\r\nCompression mode : Lossless / Lossy\r\nStream size : 2.38 GiB (23%)\r\nLanguage : English\r\nDefault : Yes\r\nForced : No\r\n\r\nSubtitles : English / French / German / Japanese / Spanish / Portuguese / Spanish\r\n\r\nChapters: YES\r\nSample: YES - included\r\n\r\nA DDR Exclusive Release...!","torrent":{"xt":"urn:btih:34db130857f0e46db9d475caa83f549e02938ab8","amp;dn":"I+Am+Ali+%282014%29+1080p+Blu-ray+x264+DTS-HDMA+MSubs+-DDR","amp;tr":["udp%3A%2F%2Ftracker.leechers-paradise.org%3A6969","udp%3A%2F%2Fzer0day.ch%3A1337","udp%3A%2F%2Fopen.demonii.com%3A1337","udp%3A%2F%2Ftracker.coppersurfer.tk%3A6969","udp%3A%2F%2Fexodus.desync.com%3A6969"],"infoHash":"34db130857f0e46db9d475caa83f549e02938ab8","infoHashBuffer":{"type":"Buffer","data":[52,219,19,8,87,240,228,109,185,212,117,202,168,63,84,158,2,147,138,184]},"announce":[],"urlList":[]}}